# xmcd
#
# Track frame offsets:
#	150
#	13428
#	37183
#	50384
#	70201
#	89686
#	110460
#	134672
#	149582
#
# Disc length: 2544 seconds
#
# Revision: 0
# Processed by: cddbd v1.5.2PL0 Copyright (c) Steve Scherf et al.
# Submitted via: EasyCDDAExtractor 12.0.1.1
#
DISCID=9009ee09
DTITLE=Quicksilver Messenger Service - Shady Grove
DYEAR=1969
DGENRE=Classic Rock
TTITLE0=Shady Grove
TTITLE1=Flute Song
TTITLE2=Three or four Feet From Home
TTITLE3=Too Far
TTITLE4=Holy Moly
TTITLE5=Joseph's Coat
TTITLE6=Flashing Lonesome
TTITLE7=Words Cant Say
TTITLE8=Edward the Mad Shirt Hatter
EXTD=
EXTT0=
EXTT1=
EXTT2=
EXTT3=
EXTT4=
EXTT5=
EXTT6=
EXTT7=
EXTT8=
PLAYORDER=
